<svg viewBox="0 0 420 560" fill="none" xmlns="http://www.w3.org/2000/svg">
  <g stroke="#CDBE78" stroke-linecap="round" stroke-linejoin="round"><path d="M251 62c-70 21-92 89-67 138 14 27 43 42 41 84-1 37-29 75-24 136m-14 0 5 82m32-82 14 82M249 62c51-8 81 5 111 33-52-11-80 1-102 27M181 195c-39 20-55 57-55 88 22-20 44-26 76-20" stroke-width="4"/><path d="M173 122c-45 11-77 43-95 82M145 336c-30 20-48 48-55 85m177-50c42 11 68 37 82 73" stroke-width="2" opacity=".65"/><path d="M51 504c36-31 71-38 106-19 34-37 70-41 107-4 41-25 75-18 108 23" stroke-width="3"/></g>
</svg>
